<svg id="구성_요소_9_1" data-name="구성 요소 9 – 1" xmlns="http://www.w3.org/2000/svg" width="25" height="22.76" viewBox="0 0 25 22.76">
  <path id="패스_27" data-name="패스 27" d="M347.656,165.12H369.9a1.505,1.505,0,0,0,0-3H347.656a1.505,1.505,0,0,0,0,3Z" transform="translate(-346.278 -162.12)" fill="#fff"/>
  <path id="패스_28" data-name="패스 28" d="M369.9,172H347.656a1.505,1.505,0,0,0,0,3H369.9a1.505,1.505,0,0,0,0-3Z" transform="translate(-346.278 -162.12)" fill="#fff"/>
  <path id="패스_29" data-name="패스 29" d="M369.9,181.88H347.656a1.505,1.505,0,0,0,0,3H369.9a1.505,1.505,0,0,0,0-3Z" transform="translate(-346.278 -162.12)" fill="#fff"/>
</svg>
